# xmcd
#
# Track frame offsets:
#       150
#       28523
#       66734
#       96860
#       135887
#       180500
#
# Disc length: 2987 seconds
#
# Revision: 0
# Processed by: cddbd v1.5.2PL0 Copyright (c) Steve Scherf et al.
# Submitted via: WaveLab 4.01
#
DISCID=4a0ba906
DTITLE=Weltbild Musik - Schmerzfrei durch Selbsthypnose
DYEAR=2010
DGENRE=Selbsthypnose
TTITLE0=1. Fixationsmethode
TTITLE1=2. Zählmethode
TTITLE2=3. Entspannungsmethode
TTITLE3=4. Schmerz lass nach: Körperteile empfindungslos machen
TTITLE4=5. Dem Schmerz auf der Spur: Problem- und Lösungshypnose
TTITLE5=6. Durch den Schmerz zum inneren Frieden: Akzeptanzhypnose
EXTD=
EXTT0=
EXTT1=
EXTT2=
EXTT3=
EXTT4=
EXTT5=
PLAYORDER=
